# xmcd
#
# Track frame offsets: 
#        180
#        17541
#        34171
#        76442
#        98508
#        150777
#        171135
#        199048
#        221445
#        254703
#        275902
#
# Disc length: 4061 seconds
#
# Revision: 2
# Processed by: cddbd v1.5.1PL0 Copyright (c) Steve Scherf et al.
# Submitted via: ExactAudioCopy v0.95a5
#
DISCID=8a0fdb0b
DTITLE=Big Dave and the Ultrasonics - No Sweat
DYEAR=1996
DGENRE=Blues
TTITLE0=Jump Jive and Wail
TTITLE1=Mm, mm, mm, mm, mm
TTITLE2=Hold It Right There
TTITLE3=Cross-eyed Cat
TTITLE4=I Need An Angel
TTITLE5=If I Don't Jump
TTITLE6=No Sweat!
TTITLE7=I Feel So Bad
TTITLE8=I Stand Accused
TTITLE9=Letter From St. Louis
TTITLE10=Rocket 88
EXTD=
EXTT0=
EXTT1=
EXTT2=
EXTT3=
EXTT4=
EXTT5=
EXTT6=
EXTT7=
EXTT8=
EXTT9=
EXTT10=
PLAYORDER=
